<svg xmlns="http://www.w3.org/2000/svg" viewBox="0 0 688.22 123.35"><title>Recurso 1</title><g id="Capa_2" data-name="Capa 2"><g id="Capa_1-2" data-name="Capa 1"><polygon points="0 2.51 0 120.84 51.02 120.84 51.02 81.2 100.08 81.2 100.08 50.15 51.02 50.15 51.02 36.53 103.65 36.53 103.65 2.51 51.02 2.51 0 2.51"/><polygon points="110.17 2.51 110.17 120.84 161.2 120.84 205.17 120.84 205.17 86.83 161.2 86.83 161.2 74.67 203.67 74.67 203.67 47.55 161.2 47.55 161.2 36.53 205.17 36.53 205.17 2.51 161.2 2.51 110.17 2.51"/><polygon points="251.82 2.51 212.12 2.51 212.12 36.53 251.82 36.53 251.82 120.84 302.85 120.84 302.85 36.53 342.56 36.53 342.56 2.51 302.85 2.51 251.82 2.51"/><rect x="349.38" y="2.51" width="51.02" height="118.33"/><polygon points="637.2 2.51 637.2 44.9 605.44 44.9 605.44 2.51 554.42 2.51 554.42 120.84 605.44 120.84 605.44 78.65 637.2 78.65 637.2 120.84 688.22 120.84 688.22 2.51 637.2 2.51"/><path d="M494.13,48.29l-23.9-3.8c-6-1-9.73-4.72-9.82-9-.13-6,7.92-9.31,17.51-9.31,8.65,0,14.3,2.89,16.51,7.65,1.82,3.91.53,8.05.53,8.61h50.56c0-31-29.72-42.45-67.6-42.45s-67.6,12.94-67.6,38.31c0,22.2,20.82,32.82,50.36,37.09l21.93,3c10.11,1.92,14.11,4.56,14.11,9.42,0,6.38-9.39,9.31-18.8,9.31-9.76,0-15.46-3.25-16.58-8.07a21,21,0,0,1-.29-7.73H407.15c0,31.54,31.13,42,70.76,42S548.67,111,548.67,85C548.67,63.64,523.84,53,494.13,48.29Z"/></g></g></svg>